<svg id="Capa_1" data-name="Capa 1" xmlns="http://www.w3.org/2000/svg" viewBox="0 0 501.7 259.2"><defs><style>.cls-1{fill:#1386c9;}</style></defs><title>logo-2</title><path class="cls-1" d="M351.5,212c67.6-5.7,125.6,9.7,154.2-99.7-45.2,82.1-136.5,32.5-154.2,76.3-5.2,12.7-8.2,20.9-13.2,30.4,6.1-17.4,8.2-34.2,3-47.7-10.9-28.4-59.1-37.4-101.8-33.4-32,3.1-61.5,14.2-67.6,18.8s-7.3,11.2-7.3,18.5,4.6,6.4,9.4,4.8c12.6-4.3,25.2-11.9,60.5-17.5s81.7-.7,87.2,20.3c10.7,41.7-47.6,113.9-66,113.9-15.5,0-74.4-64.4-62.7-85.9s90.1-22.7,93.6-8.7c1.8,7.2-16.4,32.7-24,45.2a7.1,7.1,0,0,1-11.9.4L225,219.5a7.2,7.2,0,0,0-4.2-2.8,25,25,0,0,0-6.9-.5h-.2a7.2,7.2,0,0,0-5.6,11.1c10.1,15.5,41.5,54,47.8,54s65.1-74.7,50.7-95c-12.3-17.4-102.4-20.4-128.5,9-5.7,6.4-7.5,14.6-6.5,23.8-5.1-9.5-8.1-17.7-13.3-30.5-17.7-43.8-109,5.8-154.2-76.3,28.6,109.4,86.6,94,154.2,99.7-32.7,1.8-100.5,7.9-129.6-17.5,31,53.9,90.8,36,131.5,34.4-29.8,6.2-83.7,25.7-113.1,9.6,34.5,41.1,83.9,10.6,117.1,4.9-22.6,9.3-64.5,29.2-90.5,20.7,34.9,30.4,72.2,2.5,101.1-10.7-14.8,12.7-45.3,28.2-65.4,27.7,34.5,17.1,53.2-3.3,75.2-22.9-7.4,11.7-16.4,22.1-28.4,29.5,19.2-2.7,29-15.7,38.3-20.1,20.7,27.5,49.6,50.7,63.1,49.9,11.5-.7,35.4-22.7,55.2-50.8,10.1,2.9,19.9,18.1,40.8,21-12-7.4-21-17.8-28.4-29.5,22,19.6,40.7,40,75.3,22.9-20.2.5-50.7-15-65.5-27.7,29,13.2,66.2,41.1,101.1,10.7-26,8.5-67.9-11.4-90.5-20.7,33.2,5.7,82.6,36.2,117.1-4.9-29.4,16.1-83.3-3.4-113.1-9.6,40.7,1.6,100.5,19.5,131.5-34.4C452,219.9,384.2,213.8,351.5,212Z" transform="translate(-4.1 -112.3)"/><path class="cls-1" d="M119.3,359.5a27,27,0,0,1,.7-6c1.2-6.2,3.5-10.7,6.8-13.6a17.6,17.6,0,0,1,12.2-4.4,18.2,18.2,0,0,1,7.5,1.4,9.7,9.7,0,0,1,2.5,1.4l-3.3,4h-.6a6.1,6.1,0,0,0-1.6-1.1,10.1,10.1,0,0,0-4.8-1.2,8.3,8.3,0,0,0-6.5,3.1c-1.8,2-3.2,5.5-4.2,10.4a29.9,29.9,0,0,0-.7,6c0,2.7.5,4.6,1.7,5.8a6.5,6.5,0,0,0,4.8,1.6,14.2,14.2,0,0,0,5.3-1,9.7,9.7,0,0,0,2.1-1.2h.5l1.7,4a14,14,0,0,1-3,1.4,22.8,22.8,0,0,1-8,1.3C123.6,371.4,119.3,367.5,119.3,359.5Z" transform="translate(-4.1 -112.3)"/><path class="cls-1" d="M158.9,336h10.9c8.9,0,13.4,2.8,13.4,8.4a14.1,14.1,0,0,1-.3,2.8,12.4,12.4,0,0,1-5.3,8.1,13.8,13.8,0,0,1-4.1,1.9l6.9,13.7h-9.1l-5.8-12.4h-3.1l-2.5,12.4h-8Zm7.2,18c2.6,0,4.6-.5,6-1.6s2.3-2.8,2.8-5.2a15,15,0,0,0,.2-2.2,3.9,3.9,0,0,0-1.5-3.4,8.5,8.5,0,0,0-4.8-1.1H166L163.2,354Z" transform="translate(-4.1 -112.3)"/><path class="cls-1" d="M189,370.9l7-34.9h24l-.9,4.5h-16l-2,10h12.5l-.9,4.5H200.2l-2.4,11.4h16l-.8,4.5Z" transform="translate(-4.1 -112.3)"/><path class="cls-1" d="M218.1,370.9,236.8,336H246l4.6,34.9h-8l-.9-7.9H230.3l-4.2,7.9Zm23.1-12.4L239.8,348a18.5,18.5,0,0,1-.1-2.5c0-.2.1-.7.1-1.3h-.2l-.4,1.3c-.3.8-.7,1.6-1.1,2.5l-5.5,10.5Z" transform="translate(-4.1 -112.3)"/><path class="cls-1" d="M262.6,370.9l6.1-30.4h-10l.9-4.5h28l-.9,4.5h-10l-6.1,30.4Z" transform="translate(-4.1 -112.3)"/><path class="cls-1" d="M288.9,370.9l7-34.9h8l-7,34.9Z" transform="translate(-4.1 -112.3)"/><path class="cls-1" d="M312.4,336h8l2.6,23v3.7h.2l.4-1.2a10.3,10.3,0,0,1,1.1-2.5l11.7-23h8L326,370.9h-9.2Z" transform="translate(-4.1 -112.3)"/><path class="cls-1" d="M345.9,370.9l7-34.9h24l-.9,4.5H360l-2,10h12.6l-1,4.5H357.1l-2.4,11.4h16l-.8,4.5Z" transform="translate(-4.1 -112.3)"/><path class="cls-1" d="M387.8,349l1.5-8.2-9.5.2,1-5.1h9.4l1.5-8.3h5.7l-1.5,8.2h9.4l-.9,5-9.4.2-1.5,8.2Z" transform="translate(-4.1 -112.3)"/></svg>