<svg id="Capa_1" data-name="Capa 1" xmlns="http://www.w3.org/2000/svg" viewBox="0 0 69.8 69.9"><defs><style>.cls-1{fill:#fff;}.cls-2{fill:#020202;}</style></defs><title>twitter-blanco</title><path class="cls-1" d="M.7,38.3V33.9c.3-1.5.4-3,.7-4.6a35.2,35.2,0,0,1,30.9-28A34,34,0,0,1,53.2,5.9C65.7,13.6,71.5,25,70.4,39.6a32.7,32.7,0,0,1-7.6,18.5,34.6,34.6,0,0,1-21,12.4l-3.9.5H33.5l-2.6-.3a33.4,33.4,0,0,1-17.2-7.5,34.2,34.2,0,0,1-12.4-21ZM16.8,48.7a.3.3,0,0,1,.1.2h.3c7.1,4.1,14.6,4.6,21.9.9S51.4,38.4,51.6,29.2a1.6,1.6,0,0,1,.6-1.2,14.2,14.2,0,0,0,3.3-3.6l-4.1,1.2v-.2a8.4,8.4,0,0,0,3.2-4.2l-.6.3L50,22.9a.7.7,0,0,1-.9-.3,8,8,0,0,0-13.2,4,22.2,22.2,0,0,0-.3,3.7,22.4,22.4,0,0,1-16.4-8.4c-1.9,4.3-1.1,7.8,2.4,10.7v.2l-3.3-1c-.3,3.2,2,6.3,6,8H20.9a8.4,8.4,0,0,0,7.5,5.6A16.5,16.5,0,0,1,16.8,48.7Z" transform="translate(-0.7 -1.2)"/><path class="cls-2" d="M16.8,48.7a16.5,16.5,0,0,0,11.6-3.3,8.4,8.4,0,0,1-7.5-5.6h3.3c-4-1.7-6.3-4.8-6-8l3.3,1v-.2c-3.5-2.9-4.3-6.4-2.4-10.7a22.4,22.4,0,0,0,16.4,8.4,22.2,22.2,0,0,1,.3-3.7,8,8,0,0,1,13.2-4,.7.7,0,0,0,.9.3l3.9-1.4.6-.3a8.4,8.4,0,0,1-3.2,4.2v.2l4.1-1.2A14.2,14.2,0,0,1,52.2,28a1.6,1.6,0,0,0-.6,1.2c-.2,9.2-4.1,16.5-12.5,20.7S24.3,53.1,17.2,49h-.3A.3.3,0,0,0,16.8,48.7Z" transform="translate(-0.7 -1.2)"/></svg>