<svg id="Capa_1" data-name="Capa 1" xmlns="http://www.w3.org/2000/svg" viewBox="0 0 69.8 69.9"><defs><style>.cls-1{fill:#fcfafa;}</style></defs><title>twitter-negro</title><path d="M0,37.1V32.7c.3-1.5.4-3,.7-4.6A35.3,35.3,0,0,1,31.6.1,34,34,0,0,1,52.5,4.7C65,12.4,70.8,23.8,69.7,38.4a32.4,32.4,0,0,1-7.6,18.5,34.6,34.6,0,0,1-21,12.4l-3.9.5H32.8l-2.6-.3A33.4,33.4,0,0,1,13,62,33.9,33.9,0,0,1,.6,41ZM16.1,47.5c.1.1.1.1.1.2h.3c7.1,4.1,14.6,4.6,21.9.9A23.3,23.3,0,0,0,50.9,28a1.4,1.4,0,0,1,.6-1.2,14.2,14.2,0,0,0,3.3-3.6l-4.1,1.2v-.2A8.4,8.4,0,0,0,53.9,20l-.6.3-4,1.4a.8.8,0,0,1-.9-.3,8,8,0,0,0-13.2,4,23.1,23.1,0,0,0-.3,3.7,22.4,22.4,0,0,1-16.4-8.4c-1.9,4.3-1.1,7.8,2.4,10.7v.2l-3.3-1c-.3,3.2,2,6.3,6,8H20.2a8.4,8.4,0,0,0,7.5,5.6A16.7,16.7,0,0,1,16.1,47.5Z" transform="translate(0 0.1)"/><path class="cls-1" d="M16.1,47.5a16.7,16.7,0,0,0,11.6-3.3,8.4,8.4,0,0,1-7.5-5.6h3.3c-4-1.7-6.3-4.8-6-8l3.3,1v-.2c-3.5-2.9-4.3-6.4-2.4-10.7a22.4,22.4,0,0,0,16.4,8.4,23.1,23.1,0,0,1,.3-3.7,8,8,0,0,1,13.2-4,.8.8,0,0,0,.9.3l3.9-1.4.6-.3a8.4,8.4,0,0,1-3.2,4.2v.2l4.1-1.2a13.4,13.4,0,0,1-3.1,3.6,1.4,1.4,0,0,0-.6,1.2c-.2,9.2-4.1,16.5-12.5,20.7s-14.8,3.2-21.9-.9h-.3A.4.4,0,0,0,16.1,47.5Z" transform="translate(0 0.1)"/></svg>